<?xml version="1.0" encoding="utf-8"?>
<!-- Generated by IcoMoon.io -->
<!DOCTYPE svg PUBLIC "-//W3C//DTD SVG 1.1//EN" "http://www.w3.org/Graphics/SVG/1.1/DTD/svg11.dtd">

<svg version="1.1" xmlns="http://www.w3.org/2000/svg" xmlns:xlink="http://www.w3.org/1999/xlink" width="203" height="41" viewBox="0 0 203 41">
<g transform="translate(0 0)">
	<path d="M18.571 16.786v-8.571q-0.357 0.402-0.77 0.737-2.991 2.299-4.754 3.772-0.569 0.48-0.926 0.748t-0.965 0.541-1.144 0.273h-0.022q-0.536 0-1.144-0.273t-0.965-0.541-0.926-0.748q-1.763-1.473-4.754-3.772-0.413-0.335-0.77-0.737v8.571q0 0.145 0.106 0.251t0.251 0.106h16.429q0.145 0 0.251-0.106t0.106-0.251zM18.571 5.056v-0.273t-0.006-0.145-0.033-0.14-0.061-0.1-0.1-0.084-0.156-0.028h-16.429q-0.145 0-0.251 0.106t-0.106 0.251q0 1.875 1.641 3.17 2.154 1.696 4.475 3.538 0.067 0.056 0.391 0.329t0.513 0.419 0.497 0.352 0.564 0.307 0.48 0.1h0.022q0.223 0 0.48-0.1t0.564-0.307 0.497-0.352 0.513-0.419 0.391-0.329q2.321-1.842 4.475-3.538 0.603-0.48 1.122-1.289t0.519-1.468zM20 4.643v12.143q0 0.737-0.525 1.261t-1.261 0.525h-16.429q-0.737 0-1.261-0.525t-0.525-1.261v-12.143q0-0.737 0.525-1.261t1.261-0.525h16.429q0.737 0 1.261 0.525t0.525 1.261z" fill="#ffffff"></path>
</g>
<g transform="translate(21 0)">
	<path d="M10 18.571q-0.29 0-0.491-0.201l-6.964-6.719q-0.112-0.089-0.307-0.29t-0.619-0.731-0.759-1.088-0.597-1.35-0.262-1.54q0-2.455 1.417-3.839t3.917-1.384q0.692 0 1.412 0.24t1.339 0.647 1.066 0.765 0.848 0.759q0.402-0.402 0.848-0.759t1.066-0.765 1.339-0.647 1.412-0.24q2.5 0 3.917 1.384t1.417 3.839q0 2.467-2.556 5.022l-6.953 6.696q-0.201 0.201-0.491 0.201z" fill="#ffffff"></path>
</g>
<g transform="translate(42 0)">
	<path d="M18.571 7.221q0 0.246-0.29 0.536l-4.051 3.951 0.96 5.58q0.011 0.078 0.011 0.223 0 0.234-0.117 0.396t-0.34 0.162q-0.212 0-0.446-0.134l-5.011-2.634-5.011 2.634q-0.246 0.134-0.446 0.134-0.234 0-0.352-0.162t-0.117-0.396q0-0.067 0.022-0.223l0.96-5.58-4.063-3.951q-0.279-0.301-0.279-0.536 0-0.413 0.625-0.513l5.603-0.815 2.511-5.078q0.212-0.458 0.547-0.458t0.547 0.458l2.511 5.078 5.603 0.815q0.625 0.1 0.625 0.513z" fill="#ffffff"></path>
</g>
<g transform="translate(63 0)">
	<path d="M12.69 11.205l3.415-3.315-4.71-0.692-2.109-4.263-2.109 4.263-4.71 0.692 3.415 3.315-0.815 4.699 4.219-2.221 4.208 2.221zM18.571 7.221q0 0.246-0.29 0.536l-4.051 3.951 0.96 5.58q0.011 0.078 0.011 0.223 0 0.558-0.458 0.558-0.212 0-0.446-0.134l-5.011-2.634-5.011 2.634q-0.246 0.134-0.446 0.134-0.234 0-0.352-0.162t-0.117-0.396q0-0.067 0.022-0.223l0.96-5.58-4.063-3.951q-0.279-0.301-0.279-0.536 0-0.413 0.625-0.513l5.603-0.815 2.511-5.078q0.212-0.458 0.547-0.458t0.547 0.458l2.511 5.078 5.603 0.815q0.625 0.1 0.625 0.513z" fill="#ffffff"></path>
</g>
<g transform="translate(84 0)">
	<path d="M15.714 15.681q0 1.339-0.815 2.115t-2.165 0.776h-9.754q-1.35 0-2.165-0.776t-0.815-2.115q0-0.592 0.039-1.155t0.156-1.217 0.296-1.211 0.48-1.088 0.692-0.904 0.954-0.597 1.244-0.223q0.1 0 0.469 0.24t0.831 0.536 1.205 0.536 1.49 0.24 1.49-0.24 1.205-0.536 0.831-0.536 0.469-0.24q0.681 0 1.244 0.223t0.954 0.597 0.692 0.904 0.48 1.088 0.296 1.211 0.156 1.217 0.039 1.155zM12.143 5.714q0 1.775-1.256 3.030t-3.030 1.256-3.030-1.256-1.256-3.030 1.256-3.030 3.030-1.256 3.030 1.256 1.256 3.030z" fill="#ffffff"></path>
</g>
<g transform="translate(105 0)">
	<path d="M18.65 6.317q0 0.446-0.313 0.759l-9.598 9.598q-0.313 0.313-0.759 0.313t-0.759-0.313l-5.558-5.558q-0.313-0.313-0.313-0.759t0.313-0.759l1.518-1.518q0.313-0.313 0.759-0.313t0.759 0.313l3.281 3.292 7.321-7.333q0.313-0.313 0.759-0.313t0.759 0.313l1.518 1.518q0.313 0.313 0.313 0.759z" fill="#ffffff"></path>
</g>
<g transform="translate(126 0)">
	<path d="M14.487 14.754q0 0.446-0.313 0.759l-1.518 1.518q-0.313 0.313-0.759 0.313t-0.759-0.313l-3.281-3.281-3.281 3.281q-0.313 0.313-0.759 0.313t-0.759-0.313l-1.518-1.518q-0.313-0.313-0.313-0.759t0.313-0.759l3.281-3.281-3.281-3.281q-0.313-0.313-0.313-0.759t0.313-0.759l1.518-1.518q0.313-0.313 0.759-0.313t0.759 0.313l3.281 3.281 3.281-3.281q0.313-0.313 0.759-0.313t0.759 0.313l1.518 1.518q0.313 0.313 0.313 0.759t-0.313 0.759l-3.281 3.281 3.281 3.281q0.313 0.313 0.313 0.759z" fill="#ffffff"></path>
</g>
<g transform="translate(147 0)">
	<path d="M11.417 10.714h3.527q-0.011-0.033-0.028-0.089t-0.028-0.089l-2.366-5.536h-7.902l-2.366 5.536q-0.011 0.022-0.028 0.089t-0.028 0.089h3.527l1.060 2.143h3.571zM17.143 11.049v5.379q0 0.29-0.212 0.502t-0.502 0.212h-15.714q-0.29 0-0.502-0.212t-0.212-0.502v-5.379q0-0.692 0.279-1.373l2.656-6.161q0.112-0.279 0.407-0.469t0.586-0.19h9.286q0.29 0 0.586 0.19t0.407 0.469l2.656 6.161q0.279 0.681 0.279 1.373z" fill="#ffffff"></path>
</g>
<g transform="translate(168 0)">
	<path d="M4.051 17.143l1.016-1.016-2.623-2.623-1.016 1.016v1.194h1.429v1.429h1.194zM9.888 6.786q0-0.246-0.246-0.246-0.112 0-0.19 0.078l-6.049 6.049q-0.078 0.078-0.078 0.19 0 0.246 0.246 0.246 0.112 0 0.19-0.078l6.049-6.049q0.078-0.078 0.078-0.19zM9.286 4.643l4.643 4.643-9.286 9.286h-4.643v-4.643zM16.908 5.714q0 0.592-0.413 1.004l-1.853 1.853-4.643-4.643 1.853-1.842q0.402-0.424 1.004-0.424 0.592 0 1.016 0.424l2.623 2.612q0.413 0.435 0.413 1.016z" fill="#ffffff"></path>
</g>
<g transform="translate(189 0)">
	<path d="M13.069 3.359l-5.926 5.926 5.926 5.926q0.212 0.212 0.212 0.502t-0.212 0.502l-1.853 1.853q-0.212 0.212-0.502 0.212t-0.502-0.212l-8.281-8.281q-0.212-0.212-0.212-0.502t0.212-0.502l8.281-8.281q0.212-0.212 0.502-0.212t0.502 0.212l1.853 1.853q0.212 0.212 0.212 0.502t-0.212 0.502z" fill="#ffffff"></path>
</g>
<g transform="translate(0 21)">
	<path d="M12.355 9.788l-8.281 8.281q-0.212 0.212-0.502 0.212t-0.502-0.212l-1.853-1.853q-0.212-0.212-0.212-0.502t0.212-0.502l5.926-5.926-5.926-5.926q-0.212-0.212-0.212-0.502t0.212-0.502l1.853-1.853q0.212-0.212 0.502-0.212t0.502 0.212l8.281 8.281q0.212 0.212 0.212 0.502t-0.212 0.502z" fill="#ffffff"></path>
</g>
<g transform="translate(21 21)">
	<path d="M15.714 8.214v2.143q0 0.446-0.313 0.759t-0.759 0.313h-4.643v4.643q0 0.446-0.313 0.759t-0.759 0.313h-2.143q-0.446 0-0.759-0.313t-0.313-0.759v-4.643h-4.643q-0.446 0-0.759-0.313t-0.313-0.759v-2.143q0-0.446 0.313-0.759t0.759-0.313h4.643v-4.643q0-0.446 0.313-0.759t0.759-0.313h2.143q0.446 0 0.759 0.313t0.313 0.759v4.643h4.643q0.446 0 0.759 0.313t0.313 0.759z" fill="#ffffff"></path>
</g>
<g transform="translate(42 21)">
	<path d="M10 10q0-1.183-0.837-2.020t-2.020-0.837-2.020 0.837-0.837 2.020 0.837 2.020 2.020 0.837 2.020-0.837 0.837-2.020zM18.571 15.714q0-0.58-0.424-1.004t-1.004-0.424-1.004 0.424-0.424 1.004q0 0.592 0.419 1.010t1.010 0.419 1.010-0.419 0.419-1.010zM18.571 4.286q0-0.58-0.424-1.004t-1.004-0.424-1.004 0.424-0.424 1.004q0 0.592 0.419 1.010t1.010 0.419 1.010-0.419 0.419-1.010zM14.286 8.984v2.065q0 0.112-0.078 0.218t-0.179 0.117l-1.73 0.268q-0.123 0.391-0.357 0.848 0.379 0.536 1.004 1.283 0.078 0.112 0.078 0.223 0 0.134-0.078 0.212-0.257 0.335-0.921 0.999t-0.876 0.664q-0.123 0-0.234-0.078l-1.283-1.004q-0.413 0.212-0.859 0.346-0.123 1.205-0.257 1.73-0.078 0.268-0.335 0.268h-2.076q-0.123 0-0.223-0.084t-0.112-0.195l-0.257-1.708q-0.379-0.112-0.837-0.346l-1.317 0.993q-0.078 0.078-0.223 0.078-0.123 0-0.234-0.089-1.607-1.484-1.607-1.786 0-0.1 0.078-0.212 0.112-0.156 0.458-0.592t0.525-0.681q-0.257-0.491-0.391-0.915l-1.696-0.268q-0.112-0.011-0.19-0.106t-0.078-0.218v-2.065q0-0.112 0.078-0.218t0.179-0.117l1.73-0.268q0.123-0.391 0.357-0.848-0.379-0.536-1.004-1.283-0.078-0.123-0.078-0.223 0-0.134 0.078-0.223 0.246-0.335 0.915-0.993t0.882-0.658q0.123 0 0.234 0.078l1.283 1.004q0.379-0.201 0.859-0.357 0.123-1.205 0.257-1.719 0.078-0.268 0.335-0.268h2.076q0.123 0 0.223 0.084t0.112 0.195l0.257 1.708q0.379 0.112 0.837 0.346l1.317-0.993q0.089-0.078 0.223-0.078 0.123 0 0.234 0.089 1.607 1.484 1.607 1.786 0 0.1-0.078 0.212-0.134 0.179-0.469 0.603t-0.502 0.67q0.257 0.536 0.379 0.915l1.696 0.257q0.112 0.022 0.19 0.117t0.078 0.218zM21.429 14.933v1.563q0 0.179-1.663 0.346-0.134 0.301-0.335 0.58 0.569 1.261 0.569 1.54 0 0.045-0.045 0.078-1.362 0.792-1.384 0.792-0.089 0-0.513-0.525t-0.58-0.759q-0.223 0.022-0.335 0.022t-0.335-0.022q-0.156 0.234-0.58 0.759t-0.513 0.525q-0.022 0-1.384-0.792-0.045-0.033-0.045-0.078 0-0.279 0.569-1.54-0.201-0.279-0.335-0.58-1.663-0.167-1.663-0.346v-1.563q0-0.179 1.663-0.346 0.145-0.324 0.335-0.58-0.569-1.261-0.569-1.54 0-0.045 0.045-0.078 0.045-0.022 0.391-0.223t0.658-0.379 0.335-0.179q0.089 0 0.513 0.519t0.58 0.753q0.223-0.022 0.335-0.022t0.335 0.022q0.569-0.792 1.027-1.25l0.067-0.022q0.045 0 1.384 0.781 0.045 0.033 0.045 0.078 0 0.279-0.569 1.54 0.19 0.257 0.335 0.58 1.663 0.167 1.663 0.346zM21.429 3.504v1.563q0 0.179-1.663 0.346-0.134 0.301-0.335 0.58 0.569 1.261 0.569 1.54 0 0.045-0.045 0.078-1.362 0.792-1.384 0.792-0.089 0-0.513-0.525t-0.58-0.759q-0.223 0.022-0.335 0.022t-0.335-0.022q-0.156 0.234-0.58 0.759t-0.513 0.525q-0.022 0-1.384-0.792-0.045-0.033-0.045-0.078 0-0.279 0.569-1.54-0.201-0.279-0.335-0.58-1.663-0.167-1.663-0.346v-1.563q0-0.179 1.663-0.346 0.145-0.324 0.335-0.58-0.569-1.261-0.569-1.54 0-0.045 0.045-0.078 0.045-0.022 0.391-0.223t0.658-0.379 0.335-0.179q0.089 0 0.513 0.519t0.58 0.753q0.223-0.022 0.335-0.022t0.335 0.022q0.569-0.792 1.027-1.25l0.067-0.022q0.045 0 1.384 0.781 0.045 0.033 0.045 0.078 0 0.279-0.569 1.54 0.19 0.257 0.335 0.58 1.663 0.167 1.663 0.346z" fill="#ffffff"></path>
</g>
<g transform="translate(63 21)">
	<path d="M18.571 6.652q0-0.904-0.24-1.596t-0.614-1.099-0.91-0.664-1.049-0.346-1.094-0.089-1.25 0.285-1.233 0.714-0.965 0.804-0.67 0.686q-0.201 0.246-0.547 0.246t-0.547-0.246q-0.268-0.313-0.67-0.686t-0.965-0.804-1.233-0.714-1.25-0.285-1.094 0.089-1.049 0.346-0.91 0.664-0.614 1.099-0.24 1.596q0 1.875 2.087 3.962l6.484 6.25 6.473-6.239q2.098-2.098 2.098-3.973zM20 6.652q0 2.467-2.556 5.022l-6.953 6.696q-0.201 0.201-0.491 0.201t-0.491-0.201l-6.964-6.719q-0.112-0.089-0.307-0.29t-0.619-0.731-0.759-1.088-0.597-1.35-0.262-1.54q0-2.455 1.417-3.839t3.917-1.384q0.692 0 1.412 0.24t1.339 0.647 1.066 0.765 0.848 0.759q0.402-0.402 0.848-0.759t1.066-0.765 1.339-0.647 1.412-0.24q2.5 0 3.917 1.384t1.417 3.839z" fill="#ffffff"></path>
</g>
<g transform="translate(84 21)">
	<path d="M18.571 7.143q0.592 0 1.010 0.419t0.419 1.010-0.419 1.010-1.010 0.419v4.286q0 0.58-0.424 1.004t-1.004 0.424q-4.654-3.873-9.063-4.241-0.647 0.212-1.016 0.737t-0.346 1.122 0.446 1.032q-0.223 0.368-0.257 0.731t0.067 0.647 0.374 0.614 0.536 0.558 0.686 0.564q-0.324 0.647-1.244 0.926t-1.881 0.128-1.473-0.619q-0.078-0.257-0.329-0.977t-0.357-1.055-0.257-0.993-0.167-1.127 0.039-1.099 0.246-1.233h-1.362q-0.737 0-1.261-0.525t-0.525-1.261v-2.143q0-0.737 0.525-1.261t1.261-0.525h5.357q4.855 0 10-4.286 0.58 0 1.004 0.424t0.424 1.004v4.286zM17.143 13.884v-10.647q-4.397 3.371-8.571 3.828v3.013q4.208 0.469 8.571 3.806z" fill="#ffffff"></path>
</g>
<g transform="translate(105 21)">
	<path d="M6.618 10q-1.808 0.056-2.958 1.429h-1.496q-0.915 0-1.54-0.452t-0.625-1.323q0-3.94 1.384-3.94 0.067 0 0.485 0.234t1.088 0.474 1.328 0.24q0.748 0 1.484-0.257-0.056 0.413-0.056 0.737 0 1.551 0.904 2.857zM18.571 17.109q0 1.339-0.815 2.115t-2.165 0.776h-9.754q-1.35 0-2.165-0.776t-0.815-2.115q0-0.592 0.039-1.155t0.156-1.217 0.296-1.211 0.48-1.088 0.692-0.904 0.954-0.597 1.244-0.223q0.112 0 0.48 0.24t0.815 0.536 1.194 0.536 1.507 0.24 1.507-0.24 1.194-0.536 0.815-0.536 0.48-0.24q0.681 0 1.244 0.223t0.954 0.597 0.692 0.904 0.48 1.088 0.296 1.211 0.156 1.217 0.039 1.155zM7.143 2.857q0 1.183-0.837 2.020t-2.020 0.837-2.020-0.837-0.837-2.020 0.837-2.020 2.020-0.837 2.020 0.837 0.837 2.020zM15 7.143q0 1.775-1.256 3.030t-3.030 1.256-3.030-1.256-1.256-3.030 1.256-3.030 3.030-1.256 3.030 1.256 1.256 3.030zM21.429 9.654q0 0.871-0.625 1.323t-1.54 0.452h-1.496q-1.15-1.373-2.958-1.429 0.904-1.306 0.904-2.857 0-0.324-0.056-0.737 0.737 0.257 1.484 0.257 0.658 0 1.328-0.24t1.088-0.474 0.485-0.234q1.384 0 1.384 3.94zM20 2.857q0 1.183-0.837 2.020t-2.020 0.837-2.020-0.837-0.837-2.020 0.837-2.020 2.020-0.837 2.020 0.837 0.837 2.020z" fill="#ffffff"></path>
</g>
<g transform="translate(126 21)">
	<path d="M20 7.924v8.862q0 0.737-0.525 1.261t-1.261 0.525h-16.429q-0.737 0-1.261-0.525t-0.525-1.261v-8.862q0.491 0.547 1.127 0.971 4.040 2.746 5.547 3.85 0.636 0.469 1.032 0.731t1.055 0.536 1.228 0.273h0.022q0.569 0 1.228-0.273t1.055-0.536 1.032-0.731q1.897-1.373 5.558-3.85 0.636-0.435 1.116-0.971zM20 4.643q0 0.882-0.547 1.685t-1.362 1.373q-4.196 2.913-5.223 3.627-0.112 0.078-0.474 0.34t-0.603 0.424-0.58 0.363-0.642 0.301-0.558 0.1h-0.022q-0.257 0-0.558-0.1t-0.642-0.301-0.58-0.363-0.603-0.424-0.474-0.34q-1.016-0.714-2.924-2.037t-2.288-1.59q-0.692-0.469-1.306-1.289t-0.614-1.523q0-0.871 0.463-1.451t1.323-0.58h16.429q0.725 0 1.256 0.525t0.53 1.261z" fill="#ffffff"></path>
</g>
<g transform="translate(147 21)">
	<path d="M19.688 0.123q0.368 0.268 0.301 0.714l-2.857 17.143q-0.056 0.324-0.357 0.502-0.156 0.089-0.346 0.089-0.123 0-0.268-0.056l-5.056-2.065-2.701 3.292q-0.201 0.257-0.547 0.257-0.145 0-0.246-0.045-0.212-0.078-0.34-0.262t-0.128-0.407v-3.895l9.643-11.819-11.931 10.324-4.408-1.808q-0.413-0.156-0.446-0.614-0.022-0.446 0.357-0.658l18.571-10.714q0.167-0.1 0.357-0.1 0.223 0 0.402 0.123z" fill="#ffffff"></path>
</g>

</svg>
